<svg width="29" height="28" viewBox="0 0 29 28" fill="none" xmlns="http://www.w3.org/2000/svg">
<circle cx="14.335" cy="13.9758" r="13.8985" fill="#FF6900"/>
<path d="M19.4027 16.2646C18.3732 16.7303 17.2262 16.8712 16.1146 16.6686C15.0029 16.4659 13.9795 15.9294 13.1805 15.1304C12.3815 14.3314 11.8449 13.3079 11.6423 12.1963C11.4396 11.0846 11.5806 9.93767 12.0462 8.90814C11.2266 9.27855 10.5091 9.84226 9.9552 10.5509C9.40132 11.2596 9.02763 12.092 8.86618 12.9769C8.70474 13.8617 8.76036 14.7725 9.02827 15.6311C9.29619 16.4897 9.7684 17.2705 10.4044 17.9065C11.0404 18.5424 11.8212 19.0147 12.6798 19.2826C13.5384 19.5505 14.4492 19.6061 15.334 19.4447C16.2188 19.2832 17.0513 18.9095 17.7599 18.3556C18.4686 17.8018 19.0323 17.0842 19.4027 16.2646V16.2646Z" fill="white"/>
</svg>
