<svg width="49" height="47" viewBox="0 0 49 47" fill="none" xmlns="http://www.w3.org/2000/svg">
<g clip-path="url(#clip0_2143_844)">
<g clip-path="url(#clip1_2143_844)">
<path d="M24.2269 46.4043C36.9319 46.4043 47.2313 36.1049 47.2313 23.3999C47.2313 10.6949 36.9319 0.395508 24.2269 0.395508C11.5219 0.395508 1.22247 10.6949 1.22247 23.3999C1.22247 36.1049 11.5219 46.4043 24.2269 46.4043Z" fill="#FF6900"/>
<g clip-path="url(#clip2_2143_844)">
<path d="M36.2968 19.4844H35.5937V18.7812C35.5937 18.3926 35.2792 18.0781 34.8905 18.0781C34.5019 18.0781 34.1874 18.3926 34.1874 18.7812V19.4844H33.4843C33.0956 19.4844 32.7812 19.7989 32.7812 20.1875C32.7812 20.5761 33.0956 20.8906 33.4843 20.8906H34.1874V21.5938C34.1874 21.9824 34.5019 22.2969 34.8905 22.2969C35.2792 22.2969 35.5937 21.9824 35.5937 21.5938V20.8906H36.2968C36.6854 20.8906 36.9999 20.5761 36.9999 20.1875C36.9999 19.7989 36.6854 19.4844 36.2968 19.4844Z" fill="white"/>
<path d="M33.4374 16.6719C33.8257 16.6719 34.1405 16.3571 34.1405 15.9688C34.1405 15.5804 33.8257 15.2656 33.4374 15.2656C33.0491 15.2656 32.7343 15.5804 32.7343 15.9688C32.7343 16.3571 33.0491 16.6719 33.4374 16.6719Z" fill="white"/>
<path d="M30.6249 20.8906C31.0133 20.8906 31.3281 20.5758 31.3281 20.1875C31.3281 19.7992 31.0133 19.4844 30.6249 19.4844C30.2366 19.4844 29.9218 19.7992 29.9218 20.1875C29.9218 20.5758 30.2366 20.8906 30.6249 20.8906Z" fill="white"/>
<path d="M24.5029 28.1278C24.7775 27.8532 25.2225 27.8532 25.4971 28.1278L25.7032 28.3339V22.2969H24.2969V28.3339L24.5029 28.1278Z" fill="white"/>
<path d="M32.0312 22.2969H27.1093V30.0312C27.1093 30.3155 26.9384 30.5723 26.6754 30.6807C26.5882 30.7171 26.4968 30.7343 26.4062 30.7343C26.2236 30.7343 26.0437 30.6629 25.9091 30.5283L25 29.6192L24.0908 30.5283C23.8889 30.7302 23.5882 30.7899 23.3245 30.6807C23.0615 30.5723 22.8905 30.3155 22.8905 30.0312V22.2969H22.4963L17.2656 25.3169V34.2968C17.2656 34.6854 17.5801 34.9999 17.9687 34.9999H32.0312C32.4198 34.9999 32.7343 34.6854 32.7343 34.2968V23C32.7343 22.6114 32.4198 22.2969 32.0312 22.2969Z" fill="white"/>
<path d="M30.379 15.3097L28.9729 12.8741C28.8795 12.7128 28.7257 12.5947 28.5458 12.5466C28.3666 12.4992 28.1737 12.524 28.0123 12.6166L25.8491 13.8656C25.8508 13.375 25.7345 12.843 25.4827 12.4071C25.1071 11.7561 24.5008 11.2906 23.775 11.0963C23.0506 10.9033 22.2918 11.0022 21.6409 11.3771C20.7394 11.8982 20.2004 12.8684 20.236 13.9094L20.2409 14.0577C20.2409 14.0632 20.2409 14.068 20.2416 14.0735L20.3102 16.1503L18.5765 15.07C18.5758 15.0693 18.5744 15.0687 18.5737 15.068L18.4474 14.989C17.563 14.439 16.4547 14.4184 15.5518 14.9395C14.9009 15.3151 14.4354 15.9214 14.241 16.6472C14.0467 17.373 14.1463 18.131 14.5219 18.782C14.7785 19.2256 15.1398 19.5706 15.5552 19.809L13.3518 21.0541C13.0154 21.2483 12.9002 21.6783 13.0944 22.0147L14.5473 24.4505C14.7414 24.7868 15.1714 24.902 15.5078 24.7079L30.1217 16.2702C30.458 16.0761 30.5732 15.6461 30.379 15.3097ZM17.6604 18.5934C16.9882 18.98 16.127 18.7502 15.7399 18.0789C15.352 17.4074 15.5833 16.5449 16.2549 16.1577C16.706 15.8961 17.2615 15.9071 17.703 16.1824L19.6906 17.4213L17.6604 18.5934ZM24.4054 14.2241C24.3086 14.5863 24.076 14.8895 23.751 15.077L21.7201 16.2495L21.6409 13.8613C21.6238 13.3401 21.8936 12.8554 22.344 12.5951C22.6681 12.4063 23.0472 12.3576 23.4111 12.4544C23.7736 12.5519 24.0771 12.7846 24.2646 13.1101C24.4527 13.4356 24.5029 13.8608 24.4054 14.2241Z" fill="white"/>
</g>
</g>
</g>
<defs>
<clipPath id="clip0_2143_844">
<rect width="48" height="46.34" fill="white" transform="translate(0.5 0.27002)"/>
</clipPath>
<clipPath id="clip1_2143_844">
<rect width="48" height="46.3448" fill="white" transform="translate(0.5 0.267578)"/>
</clipPath>
<clipPath id="clip2_2143_844">
<rect width="24" height="24" fill="white" transform="translate(13 11)"/>
</clipPath>
</defs>
</svg>
