<svg width="29" height="29" viewBox="0 0 29 29" fill="none" xmlns="http://www.w3.org/2000/svg">
<circle cx="14.335" cy="14.5582" r="13.8985" fill="#FF6900"/>
<path d="M17.5898 17.8326C17.8137 17.6103 18.1726 17.6103 18.3965 17.8326L19.876 19.027H19.9014C20.2007 19.3295 20.2007 19.8202 19.9014 20.1227C19.602 20.425 19.1166 20.4251 18.8174 20.1227L17.5898 18.7155C17.4738 18.5986 17.4082 18.4397 17.4082 18.274C17.4082 18.1084 17.4738 17.9495 17.5898 17.8326ZM13.5117 8.76721C14.829 8.76733 16.092 9.29648 17.0234 10.2379C17.9549 11.1794 18.4784 12.4562 18.4785 13.7877C18.4785 16.5605 16.2549 18.809 13.5117 18.8092C10.7683 18.8092 8.54395 16.5606 8.54395 13.7877C8.5441 11.0149 10.7684 8.76721 13.5117 8.76721Z" fill="white"/>
</svg>
