<svg width="28" height="28" viewBox="0 0 28 28" fill="none" xmlns="http://www.w3.org/2000/svg">
<circle cx="13.9229" cy="13.9758" r="13.8985" fill="#FF6900"/>
<path d="M19.3866 8.52221C19.0969 8.22491 18.6682 8.11415 18.2685 8.23074L8.94685 10.9414C8.52509 11.0586 8.22615 11.395 8.14562 11.8223C8.06335 12.2572 8.3507 12.8092 8.72612 13.0401L11.6408 14.8315C11.9397 15.0151 12.3256 14.969 12.5729 14.7195L15.9105 11.3612C16.0785 11.1863 16.3566 11.1863 16.5246 11.3612C16.6926 11.5302 16.6926 11.8042 16.5246 11.9791L13.1813 15.338C12.9333 15.587 12.8869 15.9746 13.0694 16.2754L14.8503 19.2193C15.0589 19.5691 15.4181 19.7673 15.812 19.7673C15.8584 19.7673 15.9105 19.7673 15.9569 19.7614C16.4088 19.7031 16.768 19.3942 16.9012 18.957L19.6647 9.6473C19.7863 9.25089 19.6763 8.81951 19.3866 8.52221" fill="white"/>
<circle cx="18.5553" cy="9.3434" r="2.02687" fill="#E33939" stroke="#FF6900" stroke-width="0.579104"/>
</svg>
