<svg width="28" height="29" viewBox="0 0 28 29" fill="none" xmlns="http://www.w3.org/2000/svg">
<circle cx="13.9229" cy="14.5582" r="13.8985" fill="#ED8E1F"/>
<path d="M19.6035 15.0299C19.6531 15.0578 19.6552 15.1233 19.6553 15.1295L19.6094 18.1198C19.6094 19.3513 18.624 20.3483 17.4072 20.3483H10.4316C9.21511 20.348 8.23047 19.3511 8.23047 18.1198L8.18945 15.1295C8.18956 15.1234 8.19197 15.058 8.24121 15.0299C8.28661 15.0012 8.34381 15.0347 8.35156 15.0416C9.52177 15.8273 10.93 16.349 12.4072 16.566C12.6158 16.5954 12.8248 16.4607 12.8828 16.2496C13.0104 15.7691 13.4219 15.4519 13.9141 15.4518H13.9316C14.4238 15.4519 14.8353 15.7692 14.9629 16.2496C15.0209 16.4605 15.2291 16.5951 15.4375 16.566C16.9148 16.3491 18.3228 15.8273 19.4932 15.0416C19.4932 15.0416 19.5051 15.0357 19.5166 15.0299C19.5397 15.0182 19.5746 15.0127 19.6035 15.0299ZM13.9199 16.2906C13.6828 16.2908 13.4857 16.4901 13.4854 16.7301V17.4869C13.4854 17.7331 13.6826 17.9262 13.9199 17.9264C14.1631 17.9262 14.3544 17.7331 14.3545 17.4869V16.7301C14.3541 16.4901 14.1629 16.2908 13.9199 16.2906ZM14.667 8.76721C15.536 8.76721 16.2492 9.42971 16.3594 10.2799H17.5068C18.7233 10.2801 19.7137 11.283 19.7139 12.5143C19.7139 12.5143 19.6796 13.0363 19.668 13.7623C19.6667 13.8196 19.6384 13.8759 19.5928 13.9098C19.3141 14.1156 19.0593 14.2858 19.0361 14.2975C18.0743 14.9425 16.9563 15.3959 15.7656 15.6217C15.6881 15.6368 15.6117 15.597 15.5723 15.528C15.2385 14.9497 14.6152 14.5729 13.9199 14.5729C13.2294 14.5729 12.6004 14.9453 12.2568 15.524C12.2169 15.592 12.1414 15.6313 12.0645 15.6168C10.8836 15.3905 9.76557 14.9373 8.80957 14.3033L8.25391 13.9156C8.20755 13.8863 8.17773 13.8337 8.17773 13.775C8.16035 13.4756 8.13184 12.5143 8.13184 12.5143C8.13196 11.283 9.12243 10.2802 10.3389 10.2799H11.4805C11.5907 9.42971 12.3038 8.76721 13.1729 8.76721H14.667ZM13.1729 9.64709C12.7847 9.64709 12.4541 9.91645 12.3613 10.2799H15.4785C15.3857 9.91647 15.0551 9.64709 14.667 9.64709H13.1729Z" fill="white"/>
</svg>
