<svg width="36" height="36" viewBox="0 0 36 36" fill="none" xmlns="http://www.w3.org/2000/svg">
<rect x="0.869019" y="0.59668" width="34.7463" height="34.7463" rx="2.89552" stroke="#FF6900" stroke-width="0.579104"/>
<path d="M15.5611 17.315C15.5938 17.2814 15.7174 17.1378 15.8325 17.0197C16.5072 16.2767 18.2674 15.0606 19.1886 14.6894C19.3285 14.6297 19.6823 14.5035 19.8712 14.4954C20.0523 14.4954 20.225 14.5371 20.3897 14.6216C20.5951 14.7397 20.7598 14.9256 20.8501 15.1451C20.9082 15.2974 20.9984 15.7532 20.9984 15.7613C21.0887 16.2599 21.1383 17.0701 21.1383 17.9654C21.1383 18.8184 21.0887 19.5955 21.0148 20.1017C21.0063 20.1098 20.9161 20.6761 20.8173 20.8701C20.6362 21.2246 20.2825 21.4446 19.904 21.4446H19.8712C19.6247 21.4359 19.1063 21.2159 19.1063 21.2078C18.2346 20.836 16.5151 19.6795 15.824 18.911C15.824 18.911 15.6294 18.7136 15.5447 18.5902C15.4127 18.413 15.3473 18.1935 15.3473 17.974C15.3473 17.7291 15.4212 17.5009 15.5611 17.315" fill="#FF6900"/>
</svg>
